<svg xmlns="http://www.w3.org/2000/svg" viewBox="0 0 80 80" width="80" height="80">
  <!-- Kaitiakitanga: Koru fern spiral — guardianship, growth, new life -->
  <defs>
    <linearGradient id="kg" x1="0%" y1="0%" x2="100%" y2="100%">
      <stop offset="0%" stop-color="#5AADA0"/>
      <stop offset="100%" stop-color="#3A7D6E"/>
    </linearGradient>
  </defs>
  <!-- Main koru spiral -->
  <path d="M40,68 C40,68 40,50 40,42 C40,30 32,22 24,22 C16,22 12,30 12,38 C12,48 20,54 28,54 C34,54 38,50 38,44 C38,40 36,37 32,37 C29,37 27,39 27,42"
    fill="none" stroke="url(#kg)" stroke-width="3.5" stroke-linecap="round"/>
  <!-- Second smaller koru -->
  <path d="M44,68 C44,68 44,54 48,48 C52,42 58,40 62,44 C66,48 64,54 58,56 C54,57 52,55 52,52"
    fill="none" stroke="url(#kg)" stroke-width="2.5" stroke-linecap="round" opacity="0.6"/>
  <!-- Ground dot -->
  <circle cx="40" cy="72" r="2.5" fill="#3A7D6E" opacity="0.5"/>
</svg>
